# xmcd CD database file
#
# Track frame offsets:
#	150
#	24578
#	34976
#	113020
#	134612
#	207734
#	231233
#	266235
#	291159
#	320548
#
# Disc length: 4660 seconds
#
# Revision: 0
# Processed by: cddbd v1.5.2PL0 Copyright (c) Steve Scherf et al.
# Submitted via: CDex 1.79
#
DISCID=9f12320a
DTITLE=Steven Mead - Luc Vertrommen - Brass Band Buizingen - Lyrical Virtuoso
DYEAR=2016
DGENRE=Euphonium
TTITLE0=David Bandman, arr. Luc Vertommen - La Corrida de Torros
TTITLE1=Ruggiero Leoncavallo, arr. Luc Vertommen - Serenade Napolitaine
TTITLE2=John Golland - Euphonium Concerto No 1
TTITLE3=Ronald Jamieson, arr. Anthony Swainson - The Auld Noost 
TTITLE4=Frank Protto, arr. Luc Vertrommen - Capriccio di Niccolo 
TTITLE5=Sigvart Dagslad, arr. Frode Rydland - Michaelangelo
TTITLE6=Stan Nieuwenhuis - Mayfly Blues 
TTITLE7=Philip Harper - In Gardens of Peace
TTITLE8=Niccolo Paganini, arr. Luc Vertommen - Rondo-La Campanella
TTITLE9=Gustav Mahler, arr. Luc Vertrommen - Ich bin der Welt abhanden gekommen (I am lost to the world)
EXTD=YEAR: 2016
EXTT0=
EXTT1=
EXTT2=
EXTT3=
EXTT4=
EXTT5=
EXTT6=
EXTT7=
EXTT8=
EXTT9=
PLAYORDER=
